<?xml version="1.0" standalone="no" ?>
<!DOCTYPE svg PUBLIC "-//W3C//DTD SVG 1.1//EN" "http://www.w3.org/Graphics/SVG/1.1/DTD/svg11.dtd">
<svg width="180" height="60" viewBox="0 0 180 60" version="1.1" xmlns="http://www.w3.org/2000/svg">
	<desc>B000010</desc>
	<g id="bars" fill="rgb(0,0,0)" stroke="none">
		<rect x="0" y="0" width="4" height="60" />
		<rect x="6" y="0" width="2" height="60" />
		<rect x="12" y="0" width="2" height="60" />
		<rect x="22" y="0" width="2" height="60" />
		<rect x="30" y="0" width="2" height="60" />
		<rect x="34" y="0" width="4" height="60" />
		<rect x="44" y="0" width="2" height="60" />
		<rect x="48" y="0" width="6" height="60" />
		<rect x="56" y="0" width="8" height="60" />
		<rect x="66" y="0" width="4" height="60" />
		<rect x="72" y="0" width="4" height="60" />
		<rect x="80" y="0" width="4" height="60" />
		<rect x="88" y="0" width="4" height="60" />
		<rect x="94" y="0" width="4" height="60" />
		<rect x="102" y="0" width="4" height="60" />
		<rect x="110" y="0" width="4" height="60" />
		<rect x="118" y="0" width="2" height="60" />
		<rect x="126" y="0" width="2" height="60" />
		<rect x="132" y="0" width="8" height="60" />
		<rect x="142" y="0" width="6" height="60" />
		<rect x="150" y="0" width="2" height="60" />
		<rect x="154" y="0" width="4" height="60" />
		<rect x="164" y="0" width="6" height="60" />
		<rect x="172" y="0" width="2" height="60" />
		<rect x="176" y="0" width="4" height="60" />
	</g>
</svg>
